<?xml version="1.0" standalone="no"?><!DOCTYPE svg PUBLIC "-//W3C//DTD SVG 1.1//EN" "http://www.w3.org/Graphics/SVG/1.1/DTD/svg11.dtd"><svg class="icon" width="128px" height="128.00px" viewBox="0 0 1024 1024" version="1.1" xmlns="http://www.w3.org/2000/svg"><path  d="M511.78 545.41c-144.24 0-284.31-47.26-394.41-133.09-14.38-11.2-16.95-31.93-5.74-46.31 11.22-14.4 31.96-16.96 46.33-5.74 98.54 76.81 224.2 119.12 353.81 119.12 129.75 0 255.48-42.31 354.02-119.12 14.38-11.22 35.13-8.66 46.33 5.74 11.21 14.38 8.64 35.12-5.74 46.31-110.08 85.83-250.22 133.09-394.6 133.09z"  /><path  d="M622.88 670.57c-16.07 0-30.16-11.76-32.6-28.13l-17.61-118.03c-2.7-18.03 9.75-34.84 27.78-37.52 17.88-2.88 34.81 9.74 37.51 27.77l17.61 118.03c2.7 18.03-9.75 34.84-27.78 37.52-1.64 0.25-3.28 0.36-4.91 0.36zM852.34 615.87c-8.45 0-16.89-3.22-23.34-9.67L724.76 501.97c-12.89-12.89-12.89-33.78 0-46.68 12.87-12.89 33.78-12.89 46.68 0l104.24 104.23c12.89 12.89 12.89 33.78 0 46.68-6.44 6.45-14.9 9.67-23.34 9.67zM400.89 670.57a31.4 31.4 0 0 1-4.91-0.37c-18.03-2.69-30.47-19.49-27.78-37.52l17.61-118.03c2.69-18.03 19.59-30.62 37.51-27.77 18.03 2.69 30.47 19.49 27.78 37.52l-17.61 118.03c-2.44 16.38-16.53 28.14-32.6 28.14zM171.42 615.87c-8.45 0-16.9-3.22-23.34-9.67-12.89-12.89-12.89-33.78 0-46.68L252.33 455.3c12.89-12.89 33.8-12.89 46.68 0 12.89 12.89 12.89 33.78 0 46.68L194.76 606.2c-6.45 6.45-14.89 9.67-23.34 9.67z"  /></svg>