<?xml version="1.0" standalone="no"?><!DOCTYPE svg PUBLIC "-//W3C//DTD SVG 1.1//EN" "http://www.w3.org/Graphics/SVG/1.1/DTD/svg11.dtd"><svg class="icon" width="128px" height="128.00px" viewBox="0 0 1024 1024" version="1.1" xmlns="http://www.w3.org/2000/svg"><path  d="M512 595.362445a83.867601 83.867601 0 1 1 83.867601-83.867601 83.867601 83.867601 0 0 1-83.867601 83.867601z"  /><path  d="M512 230.635902c-247.701984 0-449.081746 280.858942-449.081746 280.858942s201.379762 280.858942 449.081746 280.858942 448.594143-280.858942 448.594143-280.858942-200.89216-280.858942-448.594143-280.858942zM333.537547 511.494844a179.437657 179.437657 0 1 1 179.437658 179.437657A178.950055 178.950055 0 0 1 333.537547 511.494844z"  /><path  d="M977.172623 499.792388a891.824661 891.824661 0 0 0-134.578243-146.280699 709.46139 709.46139 0 0 0-146.280699-97.520466 422.75122 422.75122 0 0 0-183.826079-45.834619 420.800811 420.800811 0 0 0-183.826078 45.834619 709.46139 709.46139 0 0 0-146.280699 97.520466 937.65928 937.65928 0 0 0-135.065845 146.280699 20.479298 20.479298 0 0 0 0 23.404912 937.65928 937.65928 0 0 0 135.065845 146.280699 706.048174 706.048174 0 0 0 146.280699 97.520466 415.437185 415.437185 0 0 0 183.826078 48.760233 416.899992 416.899992 0 0 0 183.826079-48.760233 706.048174 706.048174 0 0 0 146.280699-97.520466 891.824661 891.824661 0 0 0 134.578243-146.280699 19.016491 19.016491 0 0 0 0-23.404912z m-465.172623 272.0821a490.527944 490.527944 0 0 1-303.288649-135.065845A893.775071 893.775071 0 0 1 89.736382 511.494844a889.874252 889.874252 0 0 1 118.974969-125.801401C279.901291 324.255549 390.58702 251.1152 512 251.1152s232.098709 73.140349 303.288649 134.578243a889.874252 889.874252 0 0 1 119.950173 125.801401c-40.958596 52.173449-216.983037 260.379644-423.238822 260.379644zM512 125.801401A30.718947 30.718947 0 0 1 479.818246 97.520466V30.718947a30.718947 30.718947 0 0 1 61.437894 0V97.520466a30.718947 30.718947 0 0 1-29.25614 28.280935zM121.430534 310.602684a28.768537 28.768537 0 0 1-21.454503-9.264444l-48.760233-48.760233a31.206549 31.206549 0 0 1 0-43.396608 31.206549 31.206549 0 0 1 43.396608 0l48.760233 48.760233a30.718947 30.718947 0 0 1-21.942105 52.17345zM296.47977 183.338476a30.231344 30.231344 0 0 1-27.793333-17.553684L236.017081 97.520466a30.718947 30.718947 0 1 1 56.074268-24.380117l31.694152 66.313917a30.718947 30.718947 0 0 1-14.140468 40.958596 32.181754 32.181754 0 0 1-13.165263 2.925614zM902.569466 310.602684a29.25614 29.25614 0 0 1-21.942105-9.264444 30.718947 30.718947 0 0 1 0-42.909005l48.760233-48.760233a30.718947 30.718947 0 0 1 42.909005 43.396607l-48.760233 48.760233a28.768537 28.768537 0 0 1-20.9669 8.776842zM727.52023 183.338476a32.181754 32.181754 0 0 1-13.165263-2.925614 30.718947 30.718947 0 0 1-14.140468-40.958596l31.694152-66.313917a30.718947 30.718947 0 1 1 55.099063 24.380117l-31.694151 68.264326a30.718947 30.718947 0 0 1-27.793333 17.553684zM512 1023.964893a30.718947 30.718947 0 0 1-32.181754-30.718947V926.444427a30.718947 30.718947 0 0 1 61.437894 0v64.85111a30.718947 30.718947 0 0 1-29.25614 32.669356zM952.304904 824.53554a30.231344 30.231344 0 0 1-21.454503-8.776842l-48.760233-48.760233a30.718947 30.718947 0 0 1 43.396608-42.909005l48.760233 48.760233a30.718947 30.718947 0 0 1-21.454503 52.173449zM759.214381 968.378227a30.231344 30.231344 0 0 1-27.30573-17.553684l-31.694152-66.313917a30.718947 30.718947 0 1 1 55.099064-26.330526l31.694151 68.264327a30.718947 30.718947 0 0 1-14.140468 40.958595 32.669356 32.669356 0 0 1-13.652865 0.975205zM71.695096 824.53554a32.181754 32.181754 0 0 1-21.942105-8.776842 31.206549 31.206549 0 0 1 0-43.396608l48.760233-48.760233a30.718947 30.718947 0 0 1 43.396608 42.909005l-48.760233 48.760233a30.231344 30.231344 0 0 1-21.454503 9.264445zM264.298016 968.378227a32.181754 32.181754 0 0 1-13.165262-2.925614A30.718947 30.718947 0 0 1 236.017081 926.444427l31.694152-66.313917a30.718947 30.718947 0 1 1 55.099063 26.330526l-30.718947 64.363507a30.231344 30.231344 0 0 1-27.793333 17.553684z"  /><path  d="M512 511.494844m-63.388303 0a63.388303 63.388303 0 1 0 126.776606 0 63.388303 63.388303 0 1 0-126.776606 0Z"  /><path  d="M512 427.627243a83.867601 83.867601 0 1 0 83.867601 83.867601 83.867601 83.867601 0 0 0-83.867601-83.867601z m0 126.776606a43.396607 43.396607 0 1 1 42.909005-42.909005 42.909005 42.909005 0 0 1-42.909005 42.909005z"  /></svg>